<svg width="107" height="106" viewBox="0 0 107 106" fill="none" xmlns="http://www.w3.org/2000/svg">
<path fill-rule="evenodd" clip-rule="evenodd" d="M93.4336 61.9851C93.4015 61.9851 93.3694 61.9851 93.3346 61.9824C80.4946 61.3994 67.7483 59.9419 55.454 57.655C42.63 55.2673 36.3545 53.2136 33.0455 47.3703C30.0548 42.0836 29.6509 34.0408 34.6612 28.9025C39.0749 24.3763 47.5841 22.5478 53.2257 27.0528C55.5262 28.8919 56.9653 31.5048 57.281 34.4145C57.5966 37.3215 56.7487 40.1782 54.8949 42.4599C53.231 44.5057 50.3474 45.8068 47.3728 45.8492C44.9252 45.9208 42.8761 45.0807 41.5734 43.5782C40.153 41.9378 39.5564 39.3382 40.0567 36.9558C40.4526 35.0743 41.4824 33.6486 42.9564 32.9411C45.3077 31.8122 48.4615 32.684 50.8128 35.1061C51.6314 35.9488 51.6046 37.2871 50.754 38.0953C49.9033 38.9036 48.5525 38.8771 47.7366 38.037C46.5756 36.8392 45.297 36.5265 44.8155 36.7465C44.5747 36.8631 44.3474 37.2818 44.235 37.8171C44.013 38.8718 44.2671 40.1941 44.8128 40.8248C45.2622 41.3416 46.1557 41.6066 47.3059 41.6225C48.9938 41.5986 50.7085 40.8672 51.5725 39.8072C52.7121 38.408 53.2337 36.6511 53.0384 34.865C52.8458 33.0789 51.9604 31.473 50.548 30.3467C46.8913 27.4264 40.7682 28.7249 37.7321 31.836C34.2038 35.4559 34.6023 41.4767 36.7691 45.306C38.984 49.22 43.5342 51.1307 56.2431 53.4998C68.3421 55.7523 80.8879 57.1833 93.5299 57.7583C94.7069 57.814 95.6164 58.8024 95.5629 59.9658C95.5121 61.1 94.5678 61.9851 93.4336 61.9851Z" fill="#FF9933"/>
<path fill-rule="evenodd" clip-rule="evenodd" d="M57.555 85.2839C52.7721 85.2839 47.7966 82.088 45.876 77.3286C43.5835 71.655 46.2852 65.5467 49.9901 62.6768C53.1038 60.2679 56.9665 60.1089 68.7526 61.9215C75.1137 62.902 81.5658 64.1316 87.9323 65.5759C89.0826 65.8382 89.7995 66.9724 89.5346 68.1119C89.2725 69.2461 88.1436 69.9563 86.98 69.6966C80.7098 68.2736 74.3567 67.0625 68.0972 66.0979C55.9901 64.2403 54.1096 64.8604 52.6196 66.0078C50.1025 67.9556 48.3744 72.1373 49.8376 75.7598C51.3651 79.5361 55.8858 81.9317 59.3392 80.7789C61.9046 79.9203 64.4859 77.0239 63.8439 74.7157C63.5096 73.5073 62.2817 72.2141 60.9228 71.647C60.1738 71.3317 59.4997 71.284 59.0717 71.5198C58.288 71.9465 57.6807 73.5948 58.0231 75.6114C58.2184 76.7615 57.4346 77.8507 56.2737 78.0468C55.1101 78.227 54.008 77.4611 53.8154 76.3084C53.1867 72.6169 54.4734 69.2011 57.0147 67.8151C58.6197 66.9406 60.5965 66.9221 62.584 67.7542C65.1627 68.8327 67.2733 71.125 67.9581 73.5921C69.2929 78.3886 65.2858 83.2514 60.7062 84.7857C59.6897 85.1223 58.6277 85.2839 57.555 85.2839Z" fill="#FF9933"/>
<path fill-rule="evenodd" clip-rule="evenodd" d="M70.9091 60.1008C70.449 60.1008 69.9836 59.9524 69.593 59.6503C65.1579 56.2 63.3068 50.5529 64.9893 45.5947C66.9876 39.7011 73.5279 35.9169 78.9876 37.4937C83.1499 38.6915 87.1464 42.8811 86.3385 47.5557C85.9212 49.9672 84.2092 52.3019 81.8686 53.6401C79.956 54.7425 77.9577 55.0049 76.2404 54.3795C74.6006 53.7806 73.1374 52.3151 72.4151 50.5476C71.8079 49.0583 71.8133 47.5478 72.4258 46.289C72.9394 45.2396 74.2154 44.7997 75.2747 45.3085C76.3367 45.8147 76.7807 47.0814 76.2671 48.1308C76.2029 48.2606 76.211 48.568 76.3715 48.9629C76.6711 49.6943 77.2836 50.2534 77.709 50.4098C78.1905 50.5847 78.9662 50.423 79.7286 49.9858C80.9644 49.2756 81.9301 48.0115 82.1307 46.8402C82.5454 44.4579 79.8811 42.155 77.7946 41.5508C74.4802 40.6101 70.3153 43.1647 69.0339 46.9409C67.9265 50.2084 69.2105 53.9767 72.2279 56.3219C73.1534 57.0454 73.3166 58.373 72.589 59.2899C72.169 59.8252 71.5404 60.1008 70.9091 60.1008Z" fill="#FF9933"/>
<path fill-rule="evenodd" clip-rule="evenodd" d="M17.1687 39.6079V39.7775C17.1687 41.8048 18.7015 43.4372 20.8629 43.4372C22.9093 43.4372 24.5571 41.8048 24.5571 39.7775V39.6079C24.5571 37.639 22.9093 36.0066 20.8629 36.0066C18.7015 36.0066 17.1687 37.639 17.1687 39.6079Z" fill="#FF9933"/>
<path fill-rule="evenodd" clip-rule="evenodd" d="M25.3191 52.4749V52.6418C25.3191 54.6691 26.8519 56.3015 29.0133 56.3015C31.0596 56.3015 32.7074 54.6691 32.7074 52.6418V52.4749C32.7074 50.5033 31.0596 48.8708 29.0133 48.8708C26.8519 48.8708 25.3191 50.5033 25.3191 52.4749Z" fill="#FF9933"/>
<path fill-rule="evenodd" clip-rule="evenodd" d="M34.6711 64.3894V64.559C34.6711 66.5863 36.2039 68.2187 38.3653 68.2187C40.4117 68.2187 42.0595 66.5863 42.0595 64.559V64.3894C42.0595 62.4205 40.4117 60.7881 38.3653 60.7881C36.2039 60.7881 34.6711 62.4205 34.6711 64.3894Z" fill="#FF9933"/>
<path fill-rule="evenodd" clip-rule="evenodd" d="M35.7983 77.916V78.0856C35.7983 80.1129 37.3338 81.7453 39.4925 81.7453C41.5389 81.7453 43.1867 80.1129 43.1867 78.0856V77.916C43.1867 75.9471 41.5389 74.3147 39.4925 74.3147C37.3338 74.3147 35.7983 75.9471 35.7983 77.916Z" fill="#FF9933"/>
<path fill-rule="evenodd" clip-rule="evenodd" d="M15.3166 59.6973V59.8669C15.3166 61.8941 16.852 63.5266 19.0108 63.5266C21.0571 63.5266 22.7049 61.8941 22.7049 59.8669V59.6973C22.7049 57.7283 21.0571 56.0959 19.0108 56.0959C16.852 56.0959 15.3166 57.7283 15.3166 59.6973Z" fill="#FF9933"/>
<path fill-rule="evenodd" clip-rule="evenodd" d="M23.7661 72.3472V72.5142C23.7661 74.5441 25.3016 76.1765 27.4603 76.1765C29.5067 76.1765 31.1545 74.5441 31.1545 72.5142V72.3472C31.1545 70.3783 29.5067 68.7458 27.4603 68.7458C25.3016 68.7458 23.7661 70.3783 23.7661 72.3472Z" fill="#FF9933"/>
</svg>
