<svg width="107" height="106" viewBox="0 0 107 106" fill="none" xmlns="http://www.w3.org/2000/svg">
<path fill-rule="evenodd" clip-rule="evenodd" d="M72.4805 46.2484V45.525C72.4805 44.4358 71.6271 43.5905 70.4689 43.5905C69.4337 43.5905 68.6392 44.4358 68.6392 45.525V46.2484C68.6392 47.3349 69.4337 48.1802 70.4689 48.1802C71.6271 48.1802 72.4805 47.3349 72.4805 46.2484ZM53.6431 63.7599V63.4578C53.6431 62.1301 52.6079 61.1629 51.2677 61.1629C50.0479 61.1629 49.0716 62.1301 49.0716 63.4578V63.7599C49.0716 65.0875 50.0479 66.1767 51.2677 66.1767C52.6079 66.1767 53.6431 65.0875 53.6431 63.7599ZM87.3562 61.7057C85.9545 61.7057 84.7346 62.9141 84.7346 64.3637V64.785C84.7346 66.2346 85.9545 67.443 87.3562 67.443C88.8167 67.443 89.9777 66.2346 89.9777 64.785V64.3637C89.9777 62.9141 88.8167 61.7057 87.3562 61.7057ZM58.7658 43.169V43.3492C58.7658 45.5249 60.4109 47.2739 62.7274 47.2739C64.9209 47.2739 66.6891 45.5249 66.6891 43.3492V43.169C66.6891 41.0543 64.9209 39.3027 62.7274 39.3027C60.4109 39.3027 58.7658 41.0543 58.7658 43.169ZM42.3653 68.7123C44.3181 68.7123 45.9632 67.2627 45.9632 65.209V64.5438C45.9632 62.4927 44.3181 60.9213 42.3653 60.9213C40.2949 60.9213 38.7701 62.4927 38.7701 64.5438V65.209C38.7701 67.2627 40.2949 68.7123 42.3653 68.7123ZM31.2721 66.2955C33.3452 66.2955 34.9288 64.6657 34.9288 62.551V61.9495C34.9288 59.8931 33.3452 58.3269 31.2721 58.3269C29.322 58.3269 27.7358 59.8931 27.7358 61.9495V62.551C27.7358 64.6657 29.322 66.2955 31.2721 66.2955ZM39.38 54.943C39.38 53.6127 38.3421 52.5898 37.0635 52.5898C35.7822 52.5898 34.8085 53.6127 34.8085 54.943V55.3644C34.8085 56.5145 35.7822 57.601 37.0635 57.601C38.3421 57.601 39.38 56.5145 39.38 55.3644V54.943ZM72.9085 77.3462C71.3837 77.3462 70.2255 78.4937 70.2255 79.9432V80.3672C70.2255 81.8751 71.3837 83.0252 72.9085 83.0252C74.3102 83.0252 75.4685 81.8751 75.4685 80.3672V79.9432C75.4685 78.4937 74.3102 77.3462 72.9085 77.3462ZM83.5149 71.3675C81.8082 71.3675 80.2834 72.878 80.2834 74.688V75.5943C80.2834 77.3459 81.8082 78.7955 83.5149 78.7955C85.283 78.7955 86.8051 77.3459 86.8051 75.5943V74.688C86.8051 72.878 85.283 71.3675 83.5149 71.3675ZM35.6618 48.9036C36.9404 48.9036 38.0987 48.3604 38.952 47.4541C39.685 46.6114 40.2334 45.4613 40.2334 44.2555C40.2334 43.1054 39.685 41.897 38.952 41.0543C38.0987 40.148 36.9404 39.724 35.6618 39.724C34.442 39.724 33.3452 40.148 32.3073 41.0543C31.5155 41.897 31.0287 43.1054 31.0287 44.2555C31.0287 45.4613 31.5155 46.6114 32.3073 47.4541C33.3452 48.3604 34.442 48.9036 35.6618 48.9036ZM80.2835 62.4293C82.4181 58.9896 85.4061 50.2923 82.7231 40.0872C81.5621 35.2589 78.3922 31.2733 73.7618 28.6736C68.8853 25.9574 63.1554 25.3532 57.6048 27.0439C57.4844 27.1022 57.4229 27.1022 57.4229 27.1022C50.5348 29.5216 46.0247 34.2307 44.7434 40.6914C43.6467 45.8854 44.8665 51.4398 47.5495 54.156C48.4617 55.4254 51.5112 59.0506 56.6311 60.0152C58.9477 60.5001 62.8478 60.4365 67.2402 57.4208C68.7007 56.2124 69.1287 54.0977 68.1523 52.407C66.9325 50.7163 64.6775 50.3533 62.9093 51.5007C61.1412 52.7701 59.4372 53.2524 58.0328 52.9503C55.2294 52.468 53.3997 49.7491 53.3997 49.7491C53.2178 49.5079 52.9744 49.3277 52.7898 49.1475C52.2414 48.6043 51.0832 45.3421 51.875 41.7169C52.7898 38.0944 55.5344 35.3755 59.6779 33.8676C63.3373 32.7811 67.1786 33.0832 70.2255 34.9541C73.0289 36.5256 74.9201 38.9397 75.7119 41.8971C77.8439 50.0538 75.2839 56.7557 74.1256 58.7485C61.3257 79.2807 20.0558 75.4143 19.6278 75.3534C17.5547 75.1149 15.7892 76.5008 15.6046 78.4936C15.2997 80.4864 16.8244 82.2381 18.8976 82.4183C19.3229 82.4819 22.9208 82.7813 28.1638 82.7813C42.4269 82.7813 69.1902 80.3672 80.2835 62.4293Z" fill="#FF9933"/>
</svg>
