<svg width="107" height="107" viewBox="0 0 107 107" fill="none" xmlns="http://www.w3.org/2000/svg">
<path fill-rule="evenodd" clip-rule="evenodd" d="M83.8185 71.3177C83.5844 70.9031 83.123 70.6757 82.6515 70.7359C81.3909 70.9031 80.137 70.99 78.9332 70.99C63.6122 70.99 51.1467 58.5245 51.1467 43.2068C51.1467 36.8336 53.3636 30.6109 57.3828 25.6755C57.6837 25.3044 57.7272 24.7895 57.4931 24.3748C57.2624 23.9602 56.7976 23.7328 56.3295 23.793C41.4632 25.7825 30.2482 38.6058 30.2482 53.6226C30.2482 70.221 43.757 83.7264 60.352 83.7264C69.447 83.7264 77.9569 79.6771 83.7048 72.6185C84.0057 72.2473 84.0492 71.7324 83.8185 71.3177Z" fill="#FF9933"/>
</svg>
