<svg width="107" height="107" viewBox="0 0 107 107" fill="none" xmlns="http://www.w3.org/2000/svg">
<path fill-rule="evenodd" clip-rule="evenodd" d="M72.2649 29.8536C70.823 29.8536 69.424 30.0409 68.0892 30.3886C65.5961 23.3106 58.8497 18.2388 50.921 18.2388C41.2028 18.2388 33.2634 25.8518 32.7444 35.439C32.1479 35.3614 31.5433 35.3079 30.9281 35.3079C23.3685 35.3079 17.2374 41.4364 17.2374 48.9986C17.2374 56.5608 23.3685 62.6892 30.9281 62.6892H72.2649C81.3331 62.6892 88.684 55.341 88.684 46.2728C88.684 37.2018 81.3331 29.8536 72.2649 29.8536Z" fill="#D0D2D3"/>
<path fill-rule="evenodd" clip-rule="evenodd" d="M72.4424 69.3336C72.4424 69.3336 62.0688 74.4455 60.3728 75.5129C58.6715 76.5802 58.0268 77.0751 57.1896 78.3056C54.5627 82.1683 55.5658 87.4273 59.4285 90.0515C63.2886 92.6783 68.5476 91.6725 71.1718 87.8125C72.0305 86.5553 72.1696 85.8624 72.6083 83.7331C73.0443 81.6065 73.7692 70.2297 73.7692 70.2297C73.8468 69.3256 73.2503 68.9217 72.4424 69.3336Z" fill="#26A9E0"/>
<path fill-rule="evenodd" clip-rule="evenodd" d="M47.5211 80.8236L42.0133 78.6676L46.3093 74.6016C46.6865 74.2485 46.6972 73.6493 46.3441 73.2774L44.6107 71.4451C44.2549 71.0706 43.6611 71.0572 43.2866 71.4103L39.3837 75.1071L38.3539 69.8294C38.2549 69.3211 37.76 68.9867 37.2518 69.0857L34.7774 69.5699C34.2718 69.6689 33.9374 70.1637 34.0364 70.6693L35.0663 75.9471L30.0587 73.9863C29.5772 73.7991 29.0315 74.0371 28.8442 74.5186L27.924 76.8673C27.7341 77.3461 27.9722 77.8918 28.4537 78.0817L33.9615 80.2378L29.6655 84.3038C29.2936 84.6596 29.2776 85.2561 29.6334 85.6279L31.3668 87.4603C31.7199 87.8375 32.3137 87.8508 32.6909 87.4977L36.5937 83.8009L37.6236 89.0787C37.7226 89.5842 38.2174 89.9159 38.723 89.8196L41.2001 89.3381C41.7056 89.2392 42.0373 88.7416 41.941 88.236L40.9112 82.9583L45.9161 84.919C46.3976 85.1063 46.946 84.8682 47.1305 84.3894L48.0534 82.0381C48.2407 81.5566 48.0026 81.0109 47.5211 80.8236Z" fill="#26A9E0"/>
</svg>
