<svg width="107" height="107" viewBox="0 0 107 107" fill="none" xmlns="http://www.w3.org/2000/svg">
<path fill-rule="evenodd" clip-rule="evenodd" d="M40.7969 67.5376C40.7969 67.5376 35.8348 69.9826 35.0216 70.4935C34.2057 71.0071 33.8981 71.2425 33.4968 71.831C32.2422 73.6794 32.7211 76.1966 34.5695 77.4512C36.4179 78.7084 38.9351 78.2296 40.187 76.3812C40.5989 75.7793 40.6658 75.4476 40.8745 74.4284C41.0831 73.4119 41.4309 67.9683 41.4309 67.9683C41.471 67.5349 41.1848 67.3397 40.7969 67.5376Z" fill="#26A9E0"/>
<path fill-rule="evenodd" clip-rule="evenodd" d="M56.6381 80.9099C56.6381 80.9099 51.676 83.3549 50.8654 83.8658C50.0496 84.3767 49.7419 84.6148 49.3407 85.2033C48.0861 87.0517 48.5623 89.5689 50.4107 90.8235C52.2591 92.0807 54.7763 91.6019 56.0309 89.7535C56.4428 89.1516 56.5097 88.8199 56.7183 87.8007C56.927 86.7842 57.2747 81.3379 57.2747 81.3379C57.3122 80.9046 57.026 80.712 56.6381 80.9099Z" fill="#26A9E0"/>
<path fill-rule="evenodd" clip-rule="evenodd" d="M72.777 67.5376C72.777 67.5376 67.8149 69.9826 67.0017 70.4935C66.1858 71.0071 65.8782 71.2425 65.4769 71.831C64.2223 73.6794 64.7012 76.1966 66.5496 77.4512C68.398 78.7084 70.9152 78.2296 72.1698 76.3812C72.5817 75.7793 72.6486 75.4476 72.8546 74.4284C73.0632 73.4119 73.4109 67.9683 73.4109 67.9683C73.4511 67.5349 73.1648 67.3397 72.777 67.5376Z" fill="#26A9E0"/>
<path fill-rule="evenodd" clip-rule="evenodd" d="M40.7969 80.9099C40.7969 80.9099 35.8348 83.3549 35.0216 83.8658C34.2057 84.3767 33.8981 84.6121 33.4968 85.2033C32.2422 87.0517 32.7211 89.5689 34.5695 90.8235C36.4179 92.0807 38.9351 91.5992 40.187 89.7535C40.5989 89.1516 40.6658 88.8199 40.8745 87.798C41.0831 86.7815 41.4309 81.3379 41.4309 81.3379C41.471 80.9046 41.1848 80.712 40.7969 80.9099Z" fill="#26A9E0"/>
<path fill-rule="evenodd" clip-rule="evenodd" d="M72.777 80.9099C72.777 80.9099 67.8149 83.3549 67.0017 83.8658C66.1858 84.3767 65.8782 84.6121 65.4769 85.2033C64.2223 87.0517 64.7012 89.5689 66.5496 90.8235C68.398 92.0807 70.9152 91.5992 72.1698 89.7535C72.5817 89.1516 72.6486 88.8199 72.8546 87.798C73.0632 86.7815 73.4109 81.3379 73.4109 81.3379C73.4511 80.9046 73.1648 80.712 72.777 80.9099Z" fill="#26A9E0"/>
<path fill-rule="evenodd" clip-rule="evenodd" d="M88.0431 67.5376C88.0431 67.5376 83.081 69.9826 82.2678 70.4935C81.4519 71.0071 81.1443 71.2425 80.743 71.831C79.4884 73.6794 79.9673 76.1966 81.8157 77.4512C83.6641 78.7084 86.1813 78.2296 87.4359 76.3812C87.8478 75.7793 87.9147 75.4476 88.1207 74.4284C88.3293 73.4119 88.6771 67.9683 88.6771 67.9683C88.7172 67.5349 88.431 67.3397 88.0431 67.5376Z" fill="#26A9E0"/>
<path fill-rule="evenodd" clip-rule="evenodd" d="M25.2355 67.5376C25.2355 67.5376 20.2733 69.9826 19.4601 70.4935C18.6469 71.0071 18.3366 71.2425 17.9354 71.831C16.6808 73.6794 17.1596 76.1966 19.0107 77.4512C20.8565 78.7084 23.3737 78.2296 24.6282 76.3812C25.0402 75.7793 25.1071 75.4476 25.3157 74.4284C25.5244 73.4119 25.8721 67.9683 25.8721 67.9683C25.9096 67.5349 25.6233 67.3397 25.2355 67.5376Z" fill="#26A9E0"/>
<path fill-rule="evenodd" clip-rule="evenodd" d="M74.0126 28.199C72.5761 28.199 71.1798 28.3862 69.8503 28.734C67.3626 21.6746 60.6376 16.6135 52.725 16.6135C43.0334 16.6135 35.1154 24.2079 34.5992 33.771C34.0026 33.6934 33.4008 33.6372 32.7882 33.6372C25.2474 33.6372 19.1323 39.7523 19.1323 47.2958C19.1323 54.8366 25.2474 60.949 32.7882 60.949H35.5087L46.5698 34.3943C47.0219 33.3243 48.1133 32.602 49.4294 32.5137L66.1856 32.7411C67.1833 32.7545 68.125 33.2066 68.7108 33.9502C69.4143 34.8437 69.5266 36.0314 68.989 37.0372L60.7821 52.5067L72.4665 52.1991C73.5926 52.1456 74.6707 52.6672 75.2886 53.5794C75.9948 54.6146 75.9359 55.9842 75.1254 56.9713L71.8566 60.949H74.0126C83.0568 60.949 90.389 53.6195 90.389 44.5753C90.389 35.5285 83.0568 28.199 74.0126 28.199Z" fill="#D0D2D3"/>
<path fill-rule="evenodd" clip-rule="evenodd" d="M70.9066 54.5061L56.7933 54.8859L65.9472 37.2523C66.0916 36.9688 66.0595 36.6424 65.8589 36.3829C65.6583 36.1208 65.3159 35.963 64.9441 35.9549L49.4692 35.7356C49.0118 35.7677 48.5543 35.9817 48.3992 36.3642L36.6345 65.2328C36.5222 65.5164 36.5784 65.8293 36.787 66.0754C36.9957 66.3162 37.33 66.458 37.6885 66.458H37.6938L51.6761 66.375L45.9275 85.0037C45.7911 85.4424 46.0559 85.8972 46.5508 86.0844C46.6952 86.138 46.8504 86.1647 47.0028 86.1647C47.3666 86.1647 47.7171 86.0176 47.9257 85.7528L71.8643 55.9506C72.097 55.6617 72.1157 55.2872 71.9124 54.9849C71.7118 54.6773 71.3159 54.4793 70.9066 54.5061Z" fill="#FF9933"/>
</svg>
