<svg width="107" height="107" viewBox="0 0 107 107" fill="none" xmlns="http://www.w3.org/2000/svg">
<path fill-rule="evenodd" clip-rule="evenodd" d="M72.2634 28.2301C70.8216 28.2301 69.4225 28.4173 68.0904 28.7651C65.5946 21.687 58.8509 16.6152 50.9196 16.6152C41.2013 16.6152 33.2619 24.2283 32.7403 33.8155C32.1464 33.7406 31.5445 33.6844 30.9266 33.6844C23.3644 33.6844 17.236 39.8128 17.236 47.3751C17.236 54.9373 23.3644 61.0684 30.9266 61.0684H72.2634C81.3316 61.0684 88.6825 53.7175 88.6825 44.6492C88.6825 35.581 81.3316 28.2301 72.2634 28.2301Z" fill="#D0D2D3"/>
<path fill-rule="evenodd" clip-rule="evenodd" d="M44.244 67.5035C44.244 67.5035 39.2819 69.9484 38.4687 70.4594C37.6528 70.973 37.3452 71.2084 36.9439 71.7969C35.6867 73.6453 36.1682 76.1625 38.0166 77.417C39.865 78.6743 42.3795 78.1955 43.6368 76.347C44.046 75.7452 44.1156 75.4135 44.3216 74.3943C44.5302 73.3778 44.878 67.9315 44.878 67.9315C44.9154 67.5008 44.6319 67.3055 44.244 67.5035Z" fill="#26A9E0"/>
<path fill-rule="evenodd" clip-rule="evenodd" d="M56.8877 67.5035C56.8877 67.5035 51.9256 69.9484 51.1124 70.4594C50.2992 70.973 49.9889 71.2084 49.5876 71.7969C48.333 73.6453 48.8119 76.1625 50.6603 77.417C52.5087 78.6743 55.0232 78.1955 56.2805 76.347C56.6897 75.7452 56.7593 75.4135 56.9679 74.3943C57.1766 73.3778 57.5243 67.9315 57.5243 67.9315C57.5618 67.5008 57.2756 67.3055 56.8877 67.5035Z" fill="#26A9E0"/>
<path fill-rule="evenodd" clip-rule="evenodd" d="M44.244 80.8745C44.244 80.8745 39.2819 83.3222 38.4687 83.8304C37.6528 84.344 37.3452 84.5794 36.9439 85.1679C35.6867 87.0163 36.1682 89.5335 38.0166 90.7908C39.865 92.0453 42.3795 91.5665 43.6368 89.7181C44.046 89.1162 44.1156 88.7845 44.3216 87.7653C44.5302 86.7488 44.878 81.3052 44.878 81.3052C44.9154 80.8719 44.6319 80.6766 44.244 80.8745Z" fill="#26A9E0"/>
<path fill-rule="evenodd" clip-rule="evenodd" d="M56.8877 80.8745C56.8877 80.8745 51.9256 83.3222 51.1124 83.8304C50.2992 84.344 49.9889 84.5794 49.5876 85.1679C48.333 87.0163 48.8119 89.5335 50.6603 90.7908C52.5087 92.0453 55.0232 91.5665 56.2805 89.7181C56.6897 89.1162 56.7593 88.7845 56.9679 87.7653C57.1766 86.7488 57.5243 81.3052 57.5243 81.3052C57.5618 80.8719 57.2756 80.6766 56.8877 80.8745Z" fill="#26A9E0"/>
<path fill-rule="evenodd" clip-rule="evenodd" d="M69.9048 67.5032C69.9048 67.5032 64.9427 69.9481 64.1295 70.4591C63.3163 70.97 63.006 71.2054 62.6074 71.7966C61.3502 73.645 61.829 76.1622 63.6774 77.4167C65.5258 78.674 68.043 78.1925 69.2976 76.3467C69.7069 75.7449 69.7764 75.4132 69.9851 74.3913C70.1937 73.3748 70.5415 67.9312 70.5415 67.9312C70.5789 67.4978 70.2927 67.3052 69.9048 67.5032Z" fill="#26A9E0"/>
<path fill-rule="evenodd" clip-rule="evenodd" d="M69.9048 80.875C69.9048 80.875 64.9427 83.3226 64.1295 83.8309C63.3163 84.3418 63.006 84.5799 62.6074 85.1684C61.3502 87.0168 61.829 89.534 63.6774 90.7912C65.5258 92.0458 68.043 91.567 69.2976 89.7186C69.7069 89.1167 69.7764 88.785 69.9851 87.7658C70.1937 86.7493 70.5415 81.303 70.5415 81.303C70.5789 80.8697 70.2927 80.6771 69.9048 80.875Z" fill="#26A9E0"/>
</svg>
