<svg width="107" height="107" viewBox="0 0 107 107" fill="none" xmlns="http://www.w3.org/2000/svg">
<path fill-rule="evenodd" clip-rule="evenodd" d="M72.2634 26.5843C70.8216 26.5843 69.4252 26.7716 68.0904 27.1193C65.5946 20.0413 58.8509 14.9695 50.9196 14.9695C41.2013 14.9695 33.2619 22.5825 32.7429 32.1697C32.1464 32.0948 31.5445 32.0387 30.9266 32.0387C23.3671 32.0387 17.236 38.1698 17.236 45.732C17.236 53.2915 23.3671 59.4226 30.9266 59.4226H72.2634C81.3316 59.4226 88.6825 52.0744 88.6825 43.0035C88.6825 33.9352 81.3316 26.5843 72.2634 26.5843Z" fill="#D0D2D3"/>
<path fill-rule="evenodd" clip-rule="evenodd" d="M59.3011 86.2297L56.0724 84.9644L58.5896 82.5837C58.8089 82.375 58.8196 82.0246 58.611 81.8053L57.5945 80.7299C57.3885 80.5106 57.0381 80.4999 56.8187 80.7112L54.5289 82.8779L53.9244 79.783C53.8682 79.486 53.5766 79.2881 53.2797 79.3496L51.8299 79.6305C51.5329 79.6893 51.335 79.9782 51.3938 80.2752L51.9984 83.3728L49.0612 82.2226C48.7777 82.1102 48.4594 82.252 48.347 82.5329L47.8094 83.9105C47.6997 84.1887 47.8388 84.5097 48.1197 84.6194L51.351 85.8846L48.8312 88.2707C48.6118 88.4794 48.6011 88.8298 48.8125 89.0492L49.8263 90.1218C50.0349 90.3412 50.3854 90.3519 50.6047 90.1432L52.8945 87.9738L53.4991 91.0715C53.5552 91.3684 53.8468 91.561 54.1437 91.5048L55.5936 91.2213C55.8905 91.1651 56.0858 90.8735 56.0296 90.5766L55.4251 87.4843L58.3595 88.6292C58.6431 88.7415 58.9641 88.6024 59.0738 88.3189L59.6141 86.9439C59.7238 86.6604 59.582 86.3394 59.3011 86.2297Z" fill="#26A9E0"/>
<path fill-rule="evenodd" clip-rule="evenodd" d="M59.3011 71.4337L56.0724 70.1684L58.5896 67.785C58.8089 67.579 58.8196 67.2286 58.611 67.0092L57.5945 65.9339C57.3885 65.7145 57.0381 65.7038 56.8187 65.9151L54.5289 68.0819L53.9244 64.9842C53.8682 64.69 53.5766 64.492 53.2797 64.5509L51.8299 64.8344C51.5329 64.8933 51.335 65.1822 51.3938 65.4764L51.9984 68.5741L49.0612 67.4238C48.7777 67.3142 48.4594 67.4559 48.347 67.7341L47.8094 69.1144C47.6997 69.3926 47.8388 69.7136 48.1197 69.8233L51.351 71.0886L48.8312 73.4747C48.6118 73.6833 48.6011 74.0311 48.8125 74.2531L49.8263 75.3258C50.0349 75.5451 50.3854 75.5558 50.6047 75.3472L52.8945 73.1778L53.4991 76.2754C53.5552 76.5697 53.8468 76.7649 54.1437 76.7088L55.5936 76.4252C55.8905 76.3664 56.0858 76.0775 56.0296 75.7805L55.4251 72.6856L58.3595 73.8331C58.6431 73.9428 58.9641 73.8064 59.0738 73.5228L59.6141 72.1479C59.7238 71.8643 59.582 71.5433 59.3011 71.4337Z" fill="#26A9E0"/>
<path fill-rule="evenodd" clip-rule="evenodd" d="M74.4656 86.2297L71.2368 84.9644L73.754 82.5837C73.976 82.375 73.9841 82.0246 73.7754 81.8053L72.7589 80.7299C72.5529 80.5106 72.2025 80.4999 71.9832 80.7112L69.6934 82.8779L69.0888 79.783C69.0327 79.486 68.7411 79.2881 68.4442 79.3496L66.9943 79.6305C66.6974 79.6893 66.4994 79.9782 66.5583 80.2752L67.1628 83.3728L64.2257 82.2226C63.9421 82.1102 63.6238 82.252 63.5115 82.5329L62.9738 83.9105C62.8641 84.1887 63.0032 84.5097 63.2841 84.6194L66.5155 85.8846L63.9956 88.2707C63.7763 88.4794 63.7656 88.8298 63.9769 89.0492L64.9907 90.1218C65.1994 90.3412 65.5498 90.3519 65.7692 90.1432L68.059 87.9738L68.6635 91.0715C68.7197 91.3684 69.0113 91.561 69.3082 91.5048L70.758 91.2213C71.0549 91.1651 71.2502 90.8735 71.194 90.5766L70.5895 87.4843L73.524 88.6292C73.8075 88.7415 74.1285 88.6024 74.2382 88.3189L74.7785 86.9439C74.8882 86.6604 74.7464 86.3394 74.4656 86.2297Z" fill="#26A9E0"/>
<path fill-rule="evenodd" clip-rule="evenodd" d="M74.4656 71.4337L71.2368 70.1684L73.754 67.785C73.976 67.579 73.9841 67.2286 73.7754 67.0092L72.7589 65.9339C72.5529 65.7145 72.2025 65.7038 71.9832 65.9151L69.6934 68.0819L69.0888 64.9842C69.0327 64.69 68.7411 64.492 68.4442 64.5509L66.9943 64.8344C66.6974 64.8933 66.4994 65.1822 66.5583 65.4764L67.1628 68.5741L64.2257 67.4238C63.9421 67.3142 63.6238 67.4559 63.5115 67.7341L62.9738 69.1144C62.8641 69.3926 63.0032 69.7136 63.2841 69.8233L66.5155 71.0886L63.9956 73.4747C63.7763 73.6833 63.7656 74.0311 63.9769 74.2531L64.9907 75.3258C65.1994 75.5451 65.5498 75.5558 65.7692 75.3472L68.059 73.1778L68.6635 76.2754C68.7197 76.5697 69.0113 76.7649 69.3082 76.7088L70.758 76.4252C71.0549 76.3664 71.2502 76.0775 71.194 75.7805L70.5895 72.6856L73.524 73.8331C73.8075 73.9428 74.1285 73.8064 74.2382 73.5228L74.7785 72.1479C74.8882 71.8643 74.7464 71.5433 74.4656 71.4337Z" fill="#26A9E0"/>
<path fill-rule="evenodd" clip-rule="evenodd" d="M43.7789 86.0992L40.5502 84.8339L43.0674 82.4505C43.2867 82.2418 43.2974 81.8914 43.0888 81.6747L42.0723 80.5994C41.8636 80.38 41.5159 80.3693 41.2965 80.578L39.0067 82.7474L38.4022 79.6498C38.346 79.3555 38.0544 79.1576 37.7575 79.2164L36.3077 79.4973C36.0107 79.5588 35.8128 79.8477 35.8716 80.142L36.4762 83.2396L33.539 82.0894C33.2555 81.9797 32.9345 82.1215 32.8248 82.3997L32.2871 83.7773C32.1748 84.0582 32.3166 84.3792 32.5974 84.4888L35.8262 85.7541L33.309 88.1402C33.0896 88.3462 33.0789 88.6966 33.2876 88.9186L34.3041 89.9913C34.5127 90.2107 34.8632 90.2187 35.0825 90.0127L37.3723 87.8406L37.9769 90.9383C38.033 91.2352 38.3246 91.4305 38.6215 91.3743L40.0714 91.0907C40.3683 91.0319 40.5636 90.743 40.5047 90.4461L39.9029 87.3511L42.8373 88.4987C43.1209 88.6083 43.4419 88.4719 43.5516 88.1884L44.0919 86.8134C44.2016 86.5272 44.0598 86.2089 43.7789 86.0992Z" fill="#26A9E0"/>
<path fill-rule="evenodd" clip-rule="evenodd" d="M43.7789 71.3005L40.5502 70.0379L43.0674 67.6545C43.2867 67.4458 43.2974 67.0954 43.0888 66.876L42.0723 65.8034C41.8636 65.584 41.5159 65.5733 41.2965 65.782L39.0067 67.9487L38.4022 64.8537C38.346 64.5568 38.0544 64.3615 37.7575 64.4204L36.3077 64.7013C36.0107 64.7601 35.8128 65.049 35.8716 65.3459L36.4762 68.4436L33.539 67.2933C33.2555 67.181 32.9345 67.3228 32.8248 67.6036L32.2871 68.9813C32.1748 69.2621 32.3166 69.5805 32.5974 69.6928L35.8262 70.9581L33.309 73.3415C33.0896 73.5502 33.0789 73.9006 33.2876 74.1199L34.3041 75.1926C34.5127 75.412 34.8632 75.4227 35.0825 75.214L37.3723 73.0446L37.9769 76.1422C38.033 76.4392 38.3246 76.6344 38.6215 76.5756L40.0714 76.292C40.3683 76.2359 40.5636 75.9443 40.5047 75.6474L39.9029 72.5551L42.8373 73.7026C43.1209 73.8123 43.4419 73.6732 43.5516 73.3897L44.0919 72.0147C44.2016 71.7312 44.0598 71.4102 43.7789 71.3005Z" fill="#26A9E0"/>
</svg>
