<svg width="107" height="106" viewBox="0 0 107 106" fill="none" xmlns="http://www.w3.org/2000/svg">
<path fill-rule="evenodd" clip-rule="evenodd" d="M89.7125 79.2417H17.549C16.3533 79.2417 15.3876 80.5906 15.3876 82.2521C15.3876 83.9137 16.3533 85.2599 17.549 85.2599H89.7125C90.9082 85.2599 91.8766 83.9137 91.8766 82.2521C91.8766 80.5906 90.9082 79.2417 89.7125 79.2417Z" fill="#FF9933"/>
<path fill-rule="evenodd" clip-rule="evenodd" d="M91.1086 32.23C91.1086 34.6892 89.0917 36.6847 86.6119 36.6847C84.1242 36.6847 82.1126 34.6892 82.1126 32.23C82.1126 29.7708 84.1242 27.7727 86.6119 27.7727C89.0917 27.7727 91.1086 29.7708 91.1086 32.23Z" fill="#FF9933"/>
<path fill-rule="evenodd" clip-rule="evenodd" d="M91.8467 53.055C91.8467 55.5142 89.8324 57.5123 87.35 57.5123C84.8649 57.5123 82.8533 55.5142 82.8533 53.055C82.8533 50.5958 84.8649 48.6003 87.35 48.6003C89.8324 48.6003 91.8467 50.5958 91.8467 53.055Z" fill="#FF9933"/>
<path fill-rule="evenodd" clip-rule="evenodd" d="M59.0611 47.0974C59.0611 49.5566 57.0469 51.5521 54.5645 51.5521C52.0794 51.5521 50.0678 49.5566 50.0678 47.0974C50.0678 44.6382 52.0794 42.6401 54.5645 42.6401C57.0469 42.6401 59.0611 44.6382 59.0611 47.0974Z" fill="#FF9933"/>
<path fill-rule="evenodd" clip-rule="evenodd" d="M59.8015 67.9224C59.8015 70.3816 57.7846 72.3797 55.3048 72.3797C52.8171 72.3797 50.8055 70.3816 50.8055 67.9224C50.8055 65.4632 52.8171 63.4678 55.3048 63.4678C57.7846 63.4678 59.8015 65.4632 59.8015 67.9224Z" fill="#FF9933"/>
<path fill-rule="evenodd" clip-rule="evenodd" d="M27.0159 32.23C27.0159 34.6892 24.9989 36.6847 22.5165 36.6847C20.0315 36.6847 18.0199 34.6892 18.0199 32.23C18.0199 29.7735 20.0315 27.7727 22.5165 27.7727C24.9989 27.7727 27.0159 29.7735 27.0159 32.23Z" fill="#FF9933"/>
<path fill-rule="evenodd" clip-rule="evenodd" d="M27.754 53.055C27.754 55.5142 25.737 57.5123 23.2573 57.5123C20.7722 57.5123 18.7606 55.5142 18.7606 53.055C18.7606 50.5984 20.7722 48.6003 23.2573 48.6003C25.737 48.6003 27.754 50.5984 27.754 53.055Z" fill="#FF9933"/>
</svg>
