<svg width="107" height="107" viewBox="0 0 107 107" fill="none" xmlns="http://www.w3.org/2000/svg">
<path fill-rule="evenodd" clip-rule="evenodd" d="M72.2622 24.8038C70.8231 24.8038 69.4214 24.9911 68.0892 25.3388C65.5961 18.2608 58.8498 13.189 50.9184 13.189C41.2028 13.189 33.2607 20.802 32.7418 30.3892C32.1453 30.3143 31.5434 30.2581 30.9281 30.2581C23.3659 30.2581 17.2375 36.3866 17.2375 43.9488C17.2375 51.511 23.3659 57.6421 30.9281 57.6421H72.2622C81.3332 57.6421 88.6841 50.2912 88.6841 41.223C88.6841 32.1547 81.3332 24.8038 72.2622 24.8038" fill="#D0D2D3"/>
<path fill-rule="evenodd" clip-rule="evenodd" d="M46.9266 64.1608C46.9266 64.1608 36.5556 69.2727 34.8597 70.34C33.1584 71.4073 32.511 71.9022 31.6764 73.1354C29.0496 76.9954 30.0527 82.2545 33.9154 84.8786C37.7781 87.5028 43.0345 86.5024 45.6587 82.6423C46.5147 81.3824 46.6564 80.6896 47.0925 78.5603C47.5285 76.4337 48.2588 65.0569 48.2588 65.0569C48.3337 64.1527 47.7371 63.7488 46.9266 64.1608" fill="#26A9E0"/>
<path fill-rule="evenodd" clip-rule="evenodd" d="M78.0013 77.2682L67.8497 77.5357L74.4329 65.1291C74.5399 64.9311 74.5158 64.7011 74.3714 64.5165C74.2269 64.3346 73.9808 64.2223 73.7106 64.2169L62.58 64.0618C62.2509 64.0858 61.9219 64.2356 61.8096 64.5058L53.3485 84.8144C53.2683 85.015 53.3111 85.2344 53.4609 85.4056C53.6107 85.5741 53.8514 85.6758 54.1056 85.6758H54.1136L64.1662 85.6169L60.0334 98.7244C59.9371 99.032 60.1243 99.353 60.4828 99.4814C60.5871 99.5216 60.6968 99.5403 60.8064 99.5403C61.0686 99.5403 61.3227 99.436 61.4725 99.2514L78.6915 78.2821C78.8573 78.0814 78.8734 77.8193 78.7263 77.6026C78.5818 77.3886 78.2956 77.2468 78.0013 77.2682" fill="#FF9933"/>
</svg>
