<svg width="106" height="106" viewBox="0 0 106 106" fill="none" xmlns="http://www.w3.org/2000/svg">
<path fill-rule="evenodd" clip-rule="evenodd" d="M21.0596 50.2178H86.3688C88.0913 50.2178 89.5038 48.9723 89.5038 47.4512C89.5038 45.9301 88.0913 44.6873 86.3688 44.6873H21.0596C19.3344 44.6873 17.9246 45.9301 17.9246 47.4512C17.9246 48.9723 19.3344 50.2178 21.0596 50.2178Z" fill="#26A9E0"/>
<path fill-rule="evenodd" clip-rule="evenodd" d="M86.3677 57.0969H21.0585C19.336 57.0969 17.9235 58.3424 17.9235 59.8635C17.9235 61.3846 19.336 62.6275 21.0585 62.6275H86.3677C88.0929 62.6275 89.5027 61.3846 89.5027 59.8635C89.5027 58.3424 88.0929 57.0969 86.3677 57.0969Z" fill="#26A9E0"/>
<path fill-rule="evenodd" clip-rule="evenodd" d="M77.7462 69.3757H29.6805C27.958 69.3757 26.5455 70.6212 26.5455 72.1423C26.5455 73.6608 27.958 74.9063 29.6805 74.9063H77.7462C79.4713 74.9063 80.8811 73.6608 80.8811 72.1423C80.8811 70.6212 79.4713 69.3757 77.7462 69.3757Z" fill="#26A9E0"/>
<path fill-rule="evenodd" clip-rule="evenodd" d="M29.6813 38.0679H77.747C79.4722 38.0679 80.882 36.8224 80.882 35.3013C80.882 33.7802 79.4722 32.5347 77.747 32.5347H29.6813C27.9588 32.5347 26.5464 33.7802 26.5464 35.3013C26.5464 36.8224 27.9588 38.0679 29.6813 38.0679Z" fill="#26A9E0"/>
</svg>
