<svg width="107" height="107" viewBox="0 0 107 107" fill="none" xmlns="http://www.w3.org/2000/svg">
<path fill-rule="evenodd" clip-rule="evenodd" d="M72.2635 28.7066C70.8217 28.7066 69.4253 28.8939 68.0905 29.2416C65.5947 22.1636 58.8511 17.0918 50.9197 17.0918C41.2014 17.0918 33.262 24.7048 32.7431 34.292C32.1465 34.2171 31.5447 34.161 30.9267 34.161C23.3672 34.161 17.2361 40.2894 17.2361 47.8516C17.2361 55.4138 23.3672 61.5423 30.9267 61.5423H72.2635C81.3318 61.5423 88.6827 54.194 88.6827 45.1258C88.6827 36.0549 81.3318 28.7066 72.2635 28.7066Z" fill="#D0D2D3"/>
<path fill-rule="evenodd" clip-rule="evenodd" d="M50.8911 88.9045L47.6624 87.6392L50.1796 85.2585C50.4016 85.0498 50.4096 84.6994 50.201 84.4801L49.1845 83.4047C48.9785 83.1854 48.6281 83.1747 48.4087 83.386L46.1189 85.5527L45.5144 82.4578C45.4582 82.1608 45.1666 81.9629 44.8697 82.0244L43.4198 82.3053C43.1229 82.3641 42.925 82.653 42.9838 82.95L43.5884 86.0476L40.6512 84.8974C40.3677 84.785 40.0493 84.9268 39.937 85.2077L39.3993 86.5853C39.2896 86.8635 39.4287 87.1845 39.7096 87.2942L42.941 88.5594L40.4212 90.9455C40.2018 91.1542 40.1911 91.5046 40.4024 91.724L41.4163 92.7966C41.6249 93.016 41.9753 93.0267 42.1947 92.818L44.4845 90.6486L45.089 93.7463C45.1452 94.0432 45.4368 94.2358 45.7337 94.1796L47.1836 93.8961C47.4805 93.8399 47.6758 93.5483 47.6196 93.2514L47.015 90.1591L49.9495 91.304C50.2331 91.4163 50.5541 91.2772 50.6637 90.9937L51.2041 89.6187C51.3138 89.3352 51.172 89.0142 50.8911 88.9045Z" fill="#26A9E0"/>
<path fill-rule="evenodd" clip-rule="evenodd" d="M50.8911 74.1085L47.6624 72.8432L50.1796 70.4598C50.4016 70.2538 50.4096 69.9034 50.201 69.684L49.1845 68.6087C48.9785 68.3893 48.6281 68.3786 48.4087 68.59L46.1189 70.7567L45.5144 67.6591C45.4582 67.3648 45.1666 67.1669 44.8697 67.2257L43.4198 67.5093C43.1229 67.5681 42.925 67.857 42.9838 68.1513L43.5884 71.2489L40.6512 70.0987C40.3677 69.989 40.0493 70.1308 39.937 70.409L39.3993 71.7893C39.2896 72.0675 39.4287 72.3885 39.7096 72.4981L42.941 73.7634L40.4212 76.1495C40.2018 76.3582 40.1911 76.7059 40.4024 76.9279L41.4163 78.0006C41.6249 78.2199 41.9753 78.2307 42.1947 78.022L44.4845 75.8526L45.089 78.9502C45.1452 79.2445 45.4368 79.4397 45.7337 79.3836L47.1836 79.1C47.4805 79.0412 47.6758 78.7523 47.6196 78.4553L47.015 75.3604L49.9495 76.508C50.2331 76.6176 50.5541 76.4812 50.6637 76.1977L51.2041 74.8227C51.3138 74.5392 51.172 74.2182 50.8911 74.1085Z" fill="#26A9E0"/>
<path fill-rule="evenodd" clip-rule="evenodd" d="M66.2081 88.9045L62.9794 87.6392L65.4966 85.2585C65.7186 85.0498 65.7266 84.6994 65.518 84.4801L64.5015 83.4047C64.2955 83.1854 63.9451 83.1747 63.7257 83.386L61.4359 85.5527L60.8341 82.4578C60.7752 82.1608 60.4836 81.9629 60.1894 82.0244L58.7369 82.3053C58.4399 82.3641 58.242 82.653 58.3008 82.95L58.9054 86.0476L55.9682 84.8974C55.6874 84.785 55.3664 84.9268 55.254 85.2077L54.7163 86.5853C54.6067 86.8635 54.7458 87.1845 55.0266 87.2942L58.258 88.5594L55.7382 90.9455C55.5188 91.1542 55.5081 91.5046 55.7195 91.724L56.7333 92.7966C56.9419 93.016 57.2924 93.0267 57.5144 92.818L59.8015 90.6486L60.4061 93.7463C60.4649 94.0432 60.7538 94.2358 61.0507 94.1796L62.5033 93.8961C62.7975 93.8399 62.9928 93.5483 62.9366 93.2514L62.3321 90.1591L65.2692 91.304C65.5501 91.4163 65.8711 91.2772 65.9808 90.9937L66.5211 89.6187C66.6308 89.3352 66.489 89.0142 66.2081 88.9045Z" fill="#26A9E0"/>
<path fill-rule="evenodd" clip-rule="evenodd" d="M66.2081 74.1085L62.9794 72.8432L65.4966 70.4598C65.7186 70.2538 65.7266 69.9034 65.518 69.684L64.5015 68.6087C64.2955 68.3893 63.9451 68.3786 63.7257 68.59L61.4359 70.7567L60.8341 67.6591C60.7752 67.3648 60.4836 67.1669 60.1894 67.2257L58.7369 67.5093C58.4399 67.5681 58.242 67.857 58.3008 68.1513L58.9054 71.2489L55.9682 70.0987C55.6874 69.989 55.3664 70.1308 55.254 70.409L54.7163 71.7893C54.6067 72.0675 54.7458 72.3885 55.0266 72.4981L58.258 73.7634L55.7382 76.1495C55.5188 76.3582 55.5081 76.7059 55.7195 76.9279L56.7333 78.0006C56.9419 78.2199 57.2924 78.2307 57.5144 78.022L59.8015 75.8526L60.4061 78.9502C60.4649 79.2445 60.7538 79.4397 61.0507 79.3836L62.5033 79.1C62.7975 79.0412 62.9928 78.7523 62.9366 78.4553L62.3321 75.3604L65.2692 76.508C65.5501 76.6176 65.8711 76.4812 65.9808 76.1977L66.5211 74.8227C66.6308 74.5392 66.489 74.2182 66.2081 74.1085Z" fill="#26A9E0"/>
</svg>
