<svg width="107" height="107" viewBox="0 0 107 107" fill="none" xmlns="http://www.w3.org/2000/svg">
<path fill-rule="evenodd" clip-rule="evenodd" d="M72.2635 28.2301C70.8217 28.2301 69.4227 28.4173 68.0905 28.7651C65.5947 21.687 58.8511 16.6152 50.9197 16.6152C41.2014 16.6152 33.262 24.2283 32.7404 33.8155C32.1465 33.7406 31.5447 33.6844 30.9267 33.6844C23.3645 33.6844 17.2361 39.8128 17.2361 47.3751C17.2361 54.9373 23.3645 61.0684 30.9267 61.0684H72.2635C81.3318 61.0684 88.6827 53.7175 88.6827 44.6492C88.6827 35.581 81.3318 28.2301 72.2635 28.2301Z" fill="#D0D2D3"/>
<path fill-rule="evenodd" clip-rule="evenodd" d="M50.3176 67.5035C50.3176 67.5035 45.3554 69.9484 44.5422 70.4594C43.7264 70.973 43.4187 71.2084 43.0175 71.7969C41.7602 73.6453 42.2417 76.1625 44.0902 77.417C45.9386 78.6743 48.4531 78.1955 49.7103 76.347C50.1196 75.7452 50.1892 75.4135 50.3978 74.3943C50.6038 73.3778 50.9515 67.9315 50.9515 67.9315C50.989 67.5008 50.7054 67.3055 50.3176 67.5035Z" fill="#26A9E0"/>
<path fill-rule="evenodd" clip-rule="evenodd" d="M62.9612 67.5035C62.9612 67.5035 57.9991 69.9484 57.1859 70.4594C56.3727 70.973 56.0624 71.2084 55.6612 71.7969C54.4066 73.6453 54.8854 76.1625 56.7338 77.417C58.5823 78.6743 61.0968 78.1955 62.354 76.347C62.7633 75.7452 62.8328 75.4135 63.0415 74.3943C63.2501 73.3778 63.5979 67.9315 63.5979 67.9315C63.6353 67.5008 63.3491 67.3055 62.9612 67.5035Z" fill="#26A9E0"/>
<path fill-rule="evenodd" clip-rule="evenodd" d="M50.3176 80.8745C50.3176 80.8745 45.3554 83.3222 44.5422 83.8304C43.7264 84.344 43.4187 84.5794 43.0175 85.1679C41.7602 87.0163 42.2417 89.5335 44.0902 90.7908C45.9386 92.0453 48.4531 91.5665 49.7103 89.7181C50.1196 89.1162 50.1892 88.7845 50.3978 87.7653C50.6038 86.7488 50.9515 81.3052 50.9515 81.3052C50.989 80.8719 50.7054 80.6766 50.3176 80.8745Z" fill="#26A9E0"/>
<path fill-rule="evenodd" clip-rule="evenodd" d="M62.9612 80.8745C62.9612 80.8745 57.9991 83.3222 57.1859 83.8304C56.3727 84.344 56.0624 84.5794 55.6612 85.1679C54.4066 87.0163 54.8854 89.5335 56.7338 90.7908C58.5823 92.0453 61.0968 91.5665 62.354 89.7181C62.7633 89.1162 62.8328 88.7845 63.0415 87.7653C63.2501 86.7488 63.5979 81.3052 63.5979 81.3052C63.6353 80.8719 63.3491 80.6766 62.9612 80.8745Z" fill="#26A9E0"/>
</svg>
