<svg width="107" height="107" viewBox="0 0 107 107" fill="none" xmlns="http://www.w3.org/2000/svg">
<path fill-rule="evenodd" clip-rule="evenodd" d="M66.9135 45.1202C65.4717 45.1202 64.0753 45.3075 62.7405 45.6552C60.2447 38.5772 53.5011 33.5027 45.5697 33.5027C35.8514 33.5027 27.912 41.1184 27.3931 50.7056C26.7965 50.628 26.1947 50.5745 25.5794 50.5745C18.0172 50.5745 11.8861 56.703 11.8861 64.2652C11.8861 71.8274 18.0172 77.9585 25.5794 77.9585H66.9135C75.6206 77.9585 82.7227 71.1774 83.2792 62.612C83.3006 62.2563 83.3326 61.9005 83.3326 61.5394C83.3326 52.4684 75.9818 45.1202 66.9135 45.1202Z" fill="#D0D2D3"/>
<path fill-rule="evenodd" clip-rule="evenodd" d="M102.449 54.391C102.291 54.1102 101.975 53.9523 101.654 53.9951C100.793 54.1102 99.9396 54.169 99.1157 54.169C88.6645 54.169 80.1633 45.6652 80.1633 35.214C80.1633 30.8698 81.672 26.6219 84.4139 23.254C84.6199 23.0026 84.652 22.6522 84.4915 22.3686C84.3336 22.0877 84.0153 21.9299 83.697 21.97C73.6657 23.3129 66.0875 31.8863 65.9216 41.9817C66.2533 41.9657 66.5823 41.955 66.914 41.955C77.7103 41.955 86.4977 50.7397 86.4977 61.5386C86.4977 61.9827 86.479 62.4187 86.4496 62.8547C92.6475 62.8547 98.4523 60.0915 102.371 55.2791C102.574 55.025 102.607 54.6746 102.449 54.391Z" fill="#FF9933"/>
</svg>
