<svg width="107" height="107" viewBox="0 0 107 107" fill="none" xmlns="http://www.w3.org/2000/svg">
<path fill-rule="evenodd" clip-rule="evenodd" d="M74.9386 28.2301C73.4967 28.2301 72.0977 28.4173 70.7656 28.7651C68.2698 21.687 61.5261 16.6152 53.5947 16.6152C43.8765 16.6152 35.9371 24.2283 35.4154 33.8155C34.8216 33.7406 34.2197 33.6844 33.6018 33.6844C26.0396 33.6844 19.9111 39.8128 19.9111 47.3751C19.9111 54.9373 26.0396 61.0684 33.6018 61.0684H74.9386C84.0068 61.0684 91.3577 53.7175 91.3577 44.6492C91.3577 35.581 84.0068 28.2301 74.9386 28.2301Z" fill="#D0D2D3"/>
<path fill-rule="evenodd" clip-rule="evenodd" d="M57.3122 67.5035C57.3122 67.5035 52.3501 69.9484 51.5369 70.4594C50.721 70.973 50.4134 71.2084 50.0121 71.7969C48.7575 73.6453 49.2364 76.1625 51.0848 77.417C52.9332 78.6743 55.4504 78.1955 56.705 76.347C57.1142 75.7452 57.1838 75.4135 57.3924 74.3943C57.5984 73.3778 57.9488 67.9315 57.9488 67.9315C57.9836 67.5008 57.7001 67.3055 57.3122 67.5035Z" fill="#26A9E0"/>
<path fill-rule="evenodd" clip-rule="evenodd" d="M57.3122 80.8745C57.3122 80.8745 52.3501 83.3222 51.5369 83.8304C50.721 84.344 50.4134 84.5794 50.0121 85.1679C48.7575 87.0163 49.2364 89.5335 51.0848 90.7908C52.9332 92.0453 55.4504 91.5665 56.705 89.7181C57.1142 89.1162 57.1838 88.7845 57.3924 87.7653C57.5984 86.7488 57.9488 81.3052 57.9488 81.3052C57.9836 80.8719 57.7001 80.6766 57.3122 80.8745Z" fill="#26A9E0"/>
</svg>
