<svg width="106" height="107" viewBox="0 0 106 107" fill="none" xmlns="http://www.w3.org/2000/svg">
<path fill-rule="evenodd" clip-rule="evenodd" d="M71.5868 30.5812C70.1611 30.5812 68.7751 30.7684 67.4528 31.1162C64.983 24.0381 58.2997 18.9663 50.4424 18.9663C40.8176 18.9663 32.9524 26.5794 32.4383 36.1666C31.8474 36.089 31.2485 36.0355 30.639 36.0355C23.1501 36.0355 17.0763 42.1639 17.0763 49.7261C17.0763 57.2884 23.1501 63.4168 30.639 63.4168H71.5868C80.5729 63.4168 87.8551 56.0686 87.8551 47.0003C87.8551 37.9294 80.5729 30.5812 71.5868 30.5812Z" fill="#D0D2D3"/>
<path fill-rule="evenodd" clip-rule="evenodd" d="M66.9026 69.5869C61.6371 69.5869 57.3679 73.8963 57.3679 79.2116C57.3679 84.5295 61.6371 88.8389 66.9026 88.8389C72.1682 88.8389 76.44 84.5295 76.44 79.2116C76.44 73.8963 72.1682 69.5869 66.9026 69.5869Z" fill="#26A9E0"/>
<path fill-rule="evenodd" clip-rule="evenodd" d="M38.2935 69.5869C33.0306 69.5869 28.7588 73.8963 28.7588 79.2116C28.7588 84.5295 33.0306 88.8389 38.2935 88.8389C43.559 88.8389 47.8308 84.5295 47.8308 79.2116C47.8308 73.8963 43.559 69.5869 38.2935 69.5869Z" fill="#26A9E0"/>
</svg>
