<svg width="107" height="107" viewBox="0 0 107 107" fill="none" xmlns="http://www.w3.org/2000/svg">
<path fill-rule="evenodd" clip-rule="evenodd" d="M73.0433 29.2594C71.6014 29.2594 70.2024 29.4466 68.8703 29.7944C66.3745 22.7163 59.6308 17.6445 51.6994 17.6445C41.9812 17.6445 34.0418 25.2576 33.5228 34.8448C32.9263 34.7699 32.3244 34.7137 31.7065 34.7137C24.1469 34.7137 18.0158 40.8448 18.0158 48.407C18.0158 55.9666 24.1469 62.0977 31.7065 62.0977H73.0433C82.1115 62.0977 89.4624 54.7495 89.4624 45.6785C89.4624 36.6103 82.1115 29.2594 73.0433 29.2594Z" fill="#D0D2D3"/>
<path fill-rule="evenodd" clip-rule="evenodd" d="M60.0797 88.9048L56.851 87.6395L59.3681 85.2587C59.5902 85.0501 59.5982 84.6997 59.3895 84.4803L58.373 83.405C58.1671 83.1856 57.8166 83.1749 57.5973 83.3862L55.3075 85.553L54.7056 82.458C54.6468 82.1611 54.3552 81.9631 54.0609 82.0247L52.6084 82.3055C52.3115 82.3644 52.1162 82.6533 52.1724 82.9502L52.7769 86.0479L49.8398 84.8976C49.5589 84.7853 49.2379 84.927 49.1282 85.2079L48.5879 86.5855C48.4782 86.8637 48.6173 87.1847 48.9009 87.2944L52.1296 88.5597L49.6097 90.9458C49.3904 91.1544 49.3824 91.5049 49.591 91.7242L50.6075 92.7969C50.8135 93.0162 51.1639 93.0269 51.3859 92.8183L53.6731 90.6489L54.2776 93.7465C54.3365 94.0434 54.6254 94.236 54.9223 94.1799L56.3748 93.8963C56.6717 93.8401 56.867 93.5486 56.8082 93.2516L56.2063 90.1593L59.1408 91.3042C59.4216 91.4166 59.7426 91.2775 59.8523 90.9939L60.3927 89.619C60.5023 89.3354 60.3606 89.0144 60.0797 88.9048Z" fill="#26A9E0"/>
<path fill-rule="evenodd" clip-rule="evenodd" d="M60.0797 74.1087L56.851 72.8434L59.3681 70.46C59.5902 70.254 59.5982 69.9036 59.3895 69.6843L58.373 68.6089C58.1671 68.3896 57.8166 68.3789 57.5973 68.5902L55.3075 70.7569L54.7056 67.6593C54.6468 67.365 54.3552 67.1671 54.0609 67.2259L52.6084 67.5095C52.3115 67.5683 52.1162 67.8572 52.1724 68.1515L52.7769 71.2491L49.8398 70.0989C49.5589 69.9892 49.2379 70.131 49.1282 70.4092L48.5879 71.7895C48.4782 72.0677 48.6173 72.3887 48.9009 72.4984L52.1296 73.7636L49.6097 76.1497C49.3904 76.3584 49.3824 76.7061 49.591 76.9282L50.6075 78.0008C50.8135 78.2202 51.1639 78.2309 51.3859 78.0222L53.6731 75.8528L54.2776 78.9505C54.3365 79.2447 54.6254 79.44 54.9223 79.3838L56.3748 79.1003C56.6717 79.0414 56.867 78.7525 56.8082 78.4556L56.2063 75.3606L59.1408 76.5082C59.4216 76.6179 59.7426 76.4814 59.8523 76.1979L60.3927 74.8229C60.5023 74.5394 60.3606 74.2184 60.0797 74.1087Z" fill="#26A9E0"/>
</svg>
