<svg width="106" height="107" viewBox="0 0 106 107" fill="none" xmlns="http://www.w3.org/2000/svg">
<path fill-rule="evenodd" clip-rule="evenodd" d="M28.4144 85.2705C28.2527 85.6076 28.1653 85.7975 28.0964 86.0918C27.683 87.892 28.9099 89.7217 30.8418 90.1738C32.7683 90.6259 34.6684 89.5345 35.0844 87.7315C35.1507 87.44 35.1692 87.2126 35.1586 86.8541C35.3574 83.8876 33.3513 79.2705 33.3513 79.2705C33.3513 79.2705 29.5645 82.4832 28.4144 85.2705Z" fill="#26A9E0"/>
<path fill-rule="evenodd" clip-rule="evenodd" d="M38.4128 91.8592C38.2485 92.1962 38.1611 92.3861 38.0922 92.6831C37.6814 94.4833 38.9084 96.3104 40.8376 96.7624C42.7668 97.2145 44.6668 96.1231 45.0829 94.3202C45.1491 94.0259 45.165 93.8039 45.1544 93.4428C45.3532 90.4762 43.3471 85.8591 43.3471 85.8591C43.3471 85.8591 39.5603 89.0745 38.4128 91.8592Z" fill="#26A9E0"/>
<path fill-rule="evenodd" clip-rule="evenodd" d="M47.4146 84.3211C47.2529 84.6581 47.1655 84.848 47.0992 85.1423C46.6832 86.9452 47.9128 88.7723 49.842 89.2243C51.7685 89.6764 53.6712 88.585 54.0873 86.7821C54.1535 86.4905 54.1694 86.2658 54.1615 85.9047C54.3549 82.9381 52.3515 78.321 52.3515 78.321C52.3515 78.321 48.5647 81.5364 47.4146 84.3211Z" fill="#26A9E0"/>
<path fill-rule="evenodd" clip-rule="evenodd" d="M68.5279 21.3295C68.8486 22.4637 70.0305 23.1244 71.1514 22.8008L71.2495 22.774C72.3704 22.4477 73.0276 21.2573 72.707 20.1231L71.3369 15.2867C71.0136 14.1552 69.8344 13.4944 68.7108 13.8181L68.6154 13.8449C67.4918 14.1685 66.8372 15.3616 67.1579 16.4931L68.5279 21.3295Z" fill="#FF9933"/>
<path fill-rule="evenodd" clip-rule="evenodd" d="M63.4675 24.3954L59.8847 20.8991C59.0473 20.0806 57.6958 20.102 56.8849 20.95L56.816 21.0222C56.0051 21.8702 56.0263 23.2317 56.8663 24.053L60.4491 27.5492C61.2865 28.3677 62.638 28.3437 63.4489 27.4984L63.5205 27.4235C64.3314 26.5755 64.3075 25.2139 63.4675 24.3954Z" fill="#FF9933"/>
<path fill-rule="evenodd" clip-rule="evenodd" d="M80.1503 22.6214L80.2483 22.6455C81.3799 22.9317 82.5379 22.2309 82.8215 21.086L84.0299 16.2094C84.3134 15.0645 83.6191 13.8956 82.4849 13.6093L82.3895 13.5853C81.2553 13.299 80.0973 13.9999 79.8164 15.1448L78.6053 20.024C78.3244 21.1662 79.0187 22.3352 80.1503 22.6214Z" fill="#FF9933"/>
<path fill-rule="evenodd" clip-rule="evenodd" d="M79.2912 26.3036C72.4675 24.5809 65.5642 28.3767 63.1898 34.893C63.325 34.8903 63.4548 34.8823 63.59 34.8823C73.3579 34.8823 81.549 41.8132 83.6001 51.0607C86.2978 49.2256 88.3622 46.4329 89.2128 42.9982C91.0413 35.6206 86.5973 28.1466 79.2912 26.3036Z" fill="#FF9933"/>
<path fill-rule="evenodd" clip-rule="evenodd" d="M100.269 43.5275L95.435 42.3077C94.3034 42.0214 93.1454 42.7223 92.8618 43.8645L92.8353 43.9635C92.5517 45.1084 93.2487 46.2774 94.3803 46.5609L99.2139 47.7807C100.348 48.0669 101.506 47.3661 101.787 46.2239L101.814 46.1249C102.094 44.9827 101.4 43.8137 100.269 43.5275Z" fill="#FF9933"/>
<path fill-rule="evenodd" clip-rule="evenodd" d="M94.517 20.3828L94.4455 20.3133C93.6054 19.492 92.2566 19.5161 91.443 20.3641L87.9821 23.978C87.1686 24.826 87.1924 26.1876 88.0325 27.0088L88.104 27.0783C88.9414 27.8969 90.2929 27.8755 91.1038 27.0275L94.5674 23.4109C95.3783 22.5629 95.3571 21.2014 94.517 20.3828Z" fill="#FF9933"/>
<path fill-rule="evenodd" clip-rule="evenodd" d="M95.0979 55.2672L91.5151 51.771C90.6777 50.9524 89.3262 50.9738 88.5153 51.8218L88.4464 51.894C87.6355 52.742 87.6567 54.1036 88.4967 54.9248L92.0769 58.421C92.9169 59.2369 94.2684 59.2155 95.0793 58.3702L95.1509 58.2953C95.9618 57.4473 95.9379 56.0857 95.0979 55.2672Z" fill="#FF9933"/>
<path fill-rule="evenodd" clip-rule="evenodd" d="M92.7118 34.8809C93.0324 36.0151 94.2117 36.6758 95.3353 36.3522L100.124 34.9692C101.247 34.6455 101.905 33.4525 101.584 32.3183L101.555 32.222C101.234 31.0904 100.055 30.427 98.9313 30.7534L94.1401 32.1364C93.0192 32.46 92.362 33.6504 92.6826 34.7846L92.7118 34.8809Z" fill="#FF9933"/>
<path fill-rule="evenodd" clip-rule="evenodd" d="M63.5891 38.3839C62.0919 38.3839 60.6423 38.5792 59.259 38.9457C56.6673 31.5279 49.6687 26.2153 41.4378 26.2153C31.3492 26.2153 23.1104 34.1922 22.5698 44.2368C21.9523 44.1566 21.3269 44.0977 20.6883 44.0977C12.839 44.0977 6.47635 50.5204 6.47635 58.4437C6.47635 66.3644 12.839 72.7898 20.6883 72.7898H63.5891C72.6256 72.7898 79.9979 65.685 80.5757 56.7103C80.5995 56.3358 80.6313 55.964 80.6313 55.5868C80.6313 46.0826 72.9993 38.3839 63.5891 38.3839Z" fill="#D0D2D3"/>
</svg>
