<svg width="107" height="107" viewBox="0 0 107 107" fill="none" xmlns="http://www.w3.org/2000/svg">
<path fill-rule="evenodd" clip-rule="evenodd" d="M101.215 54.6454L96.3353 53.4256C95.1931 53.1394 94.0241 53.8402 93.7379 54.9851L93.7111 55.0814C93.4249 56.2263 94.1284 57.3953 95.2707 57.6815L100.15 58.8986C101.295 59.1849 102.464 58.484 102.747 57.3418L102.774 57.2428C103.058 56.1006 102.357 54.9316 101.215 54.6454Z" fill="#FF9933"/>
<path fill-rule="evenodd" clip-rule="evenodd" d="M95.4087 31.5L95.3365 31.4304C94.4885 30.6092 93.1269 30.6333 92.3057 31.4813L88.8122 35.0952C87.9909 35.9432 88.015 37.3047 88.863 38.126L88.9352 38.1955C89.7805 39.0141 91.1448 38.9927 91.9633 38.1447L95.4595 34.5281C96.2781 33.6801 96.2567 32.3185 95.4087 31.5Z" fill="#FF9933"/>
<path fill-rule="evenodd" clip-rule="evenodd" d="M69.1744 32.4474C69.4981 33.5816 70.6912 34.2423 71.8227 33.9187L71.9217 33.8919C73.0532 33.5656 73.7166 32.3752 73.3929 31.241L72.0099 26.4073C71.6836 25.2731 70.4932 24.6123 69.359 24.936L69.2627 24.9628C68.1285 25.2864 67.4678 26.4795 67.7915 27.611L69.1744 32.4474Z" fill="#FF9933"/>
<path fill-rule="evenodd" clip-rule="evenodd" d="M64.0662 35.5126L60.4496 32.0163C59.6043 31.1978 58.2401 31.2192 57.4215 32.0672L57.352 32.1394C56.5334 32.9874 56.5548 34.3489 57.4028 35.1702L61.0194 38.6664C61.8647 39.4849 63.2289 39.4609 64.0475 38.6156L64.1197 38.5407C64.9383 37.6927 64.9142 36.3311 64.0662 35.5126Z" fill="#FF9933"/>
<path fill-rule="evenodd" clip-rule="evenodd" d="M95.995 66.3851L92.3784 62.8889C91.5331 62.0703 90.1689 62.0917 89.3503 62.9397L89.2808 63.0119C88.4622 63.8599 88.4836 65.2215 89.3316 66.0427L92.9455 69.539C93.7935 70.3575 95.1578 70.3334 95.9763 69.4881L96.0485 69.4132C96.8671 68.5653 96.843 67.2037 95.995 66.3851Z" fill="#FF9933"/>
<path fill-rule="evenodd" clip-rule="evenodd" d="M93.5864 45.9988C93.9101 47.133 95.1005 47.7937 96.2347 47.4701L101.068 46.0871C102.203 45.7634 102.866 44.5704 102.542 43.4362L102.513 43.3399C102.189 42.2083 100.999 41.5449 99.8647 41.8713L95.0282 43.2543C93.8967 43.5779 93.2333 44.7683 93.557 45.9025L93.5864 45.9988Z" fill="#FF9933"/>
<path fill-rule="evenodd" clip-rule="evenodd" d="M80.9064 33.7393L81.0054 33.7634C82.1476 34.0496 83.3166 33.3488 83.6028 32.2039L84.8226 27.3273C85.1089 26.1824 84.408 25.0135 83.2631 24.7272L83.1668 24.7032C82.0219 24.4169 80.8529 25.1178 80.5694 26.2627L79.3469 31.1419C79.0634 32.2841 79.7642 33.4531 80.9064 33.7393Z" fill="#FF9933"/>
<path fill-rule="evenodd" clip-rule="evenodd" d="M80.0392 37.4215C73.1511 35.6988 66.1827 39.4946 63.7859 46.0109C63.9224 46.0082 64.0534 46.0002 64.1899 46.0002C74.0499 46.0002 82.3183 52.9311 84.3888 62.1786C87.1119 60.3436 89.1958 57.5509 90.0544 54.1162C91.9002 46.7385 87.4142 39.2646 80.0392 37.4215Z" fill="#FF9933"/>
<path fill-rule="evenodd" clip-rule="evenodd" d="M64.189 49.5018C62.6777 49.5018 61.2144 49.6971 59.8181 50.0636C57.2019 42.6458 50.1373 37.3333 41.8287 37.3333C31.645 37.3333 23.3284 45.3101 22.7827 55.3547C22.1594 55.2745 21.5281 55.2156 20.8835 55.2156C12.9601 55.2156 6.53745 61.6383 6.53745 69.5617C6.53745 77.4823 12.9601 83.9077 20.8835 83.9077H64.189C73.3108 83.9077 80.7526 76.8055 81.3358 67.8283C81.3599 67.4564 81.392 67.0819 81.392 66.7048C81.392 57.2031 73.688 49.5018 64.189 49.5018Z" fill="#D0D2D3"/>
</svg>
