<svg width="106" height="107" viewBox="0 0 106 107" fill="none" xmlns="http://www.w3.org/2000/svg">
<path fill-rule="evenodd" clip-rule="evenodd" d="M31.8135 52.9845C31.8135 64.2168 40.8341 73.3225 51.9615 73.3225C63.0888 73.3225 72.1094 64.2168 72.1094 52.9845C72.1094 41.7522 63.0888 32.6465 51.9615 32.6465C40.8341 32.6465 31.8135 41.7522 31.8135 52.9845Z" fill="#FF9933"/>
<path fill-rule="evenodd" clip-rule="evenodd" d="M88.1377 49.7451H80.7786C79.0535 49.7451 77.6437 51.1682 77.6437 52.9096V53.0594C77.6437 54.8009 79.0535 56.224 80.7786 56.224H88.1377C89.8628 56.224 91.2726 54.8009 91.2726 53.0594V52.9096C91.2726 51.1682 89.8628 49.7451 88.1377 49.7451Z" fill="#FF9933"/>
<path fill-rule="evenodd" clip-rule="evenodd" d="M26.2769 53.0585V52.9087C26.2769 51.1672 24.8671 49.7441 23.1419 49.7441H15.7829C14.0577 49.7441 12.6453 51.1672 12.6453 52.9087V53.0585C12.6453 54.7999 14.0577 56.223 15.7829 56.223H23.1419C24.8671 56.223 26.2769 54.7999 26.2769 53.0585Z" fill="#FF9933"/>
<path fill-rule="evenodd" clip-rule="evenodd" d="M71.6814 18.6536L71.5542 18.5787C70.0596 17.7093 68.1331 18.2282 67.2692 19.7369L63.591 26.173C62.7271 27.679 63.2438 29.6264 64.7358 30.4958L64.8656 30.5707C66.3576 31.4401 68.2868 30.9184 69.148 29.4097L72.8289 22.9764C73.6901 21.4703 73.1734 19.5229 71.6814 18.6536Z" fill="#FF9933"/>
<path fill-rule="evenodd" clip-rule="evenodd" d="M39.1826 75.4739L39.0554 75.399C37.5608 74.5269 35.6343 75.0485 34.773 76.5572L31.0922 82.9906C30.2309 84.4993 30.745 86.444 32.2396 87.3134L32.3668 87.391C33.8614 88.2604 35.788 87.7387 36.6492 86.23L40.3301 79.7967C41.1913 78.288 40.6772 76.3432 39.1826 75.4739Z" fill="#FF9933"/>
<path fill-rule="evenodd" clip-rule="evenodd" d="M69.1478 76.5564C68.2865 75.0504 66.3573 74.5288 64.8654 75.3982L64.7355 75.4731C63.2436 76.3424 62.7268 78.2872 63.5907 79.7959L67.2716 86.2319C68.1328 87.7379 70.0594 88.2596 71.554 87.3902L71.6812 87.3126C73.1758 86.4432 73.6899 84.4985 72.8286 82.9898L69.1478 76.5564Z" fill="#FF9933"/>
<path fill-rule="evenodd" clip-rule="evenodd" d="M34.7728 29.4109C35.634 30.9196 37.5606 31.4386 39.0552 30.5692L39.1824 30.4943C40.677 29.6249 41.1911 27.6802 40.3298 26.1715L36.649 19.7381C35.7877 18.2294 33.8612 17.7078 32.3666 18.5799L32.2394 18.6548C30.7448 19.5241 30.2307 21.4689 31.0919 22.9776L34.7728 29.4109Z" fill="#FF9933"/>
<path fill-rule="evenodd" clip-rule="evenodd" d="M28.6073 35.6335L22.234 31.9179C20.7394 31.0486 18.8129 31.5702 17.9516 33.0762L17.8774 33.2073C17.0135 34.7133 17.5303 36.6607 19.0249 37.5301L25.3981 41.2457C26.8927 42.115 28.8193 41.5934 29.6805 40.0874L29.7547 39.9563C30.6186 38.4503 30.0992 36.5029 28.6073 35.6335Z" fill="#FF9933"/>
<path fill-rule="evenodd" clip-rule="evenodd" d="M84.8965 68.4388L78.5206 64.7232C77.0286 63.8538 75.1021 64.3728 74.2408 65.8815L74.1666 66.0099C73.3027 67.5186 73.8195 69.4633 75.3114 70.3327L81.6873 74.0483C83.1819 74.9176 85.1085 74.3987 85.9697 72.8927L86.0439 72.7616C86.9052 71.2529 86.3884 69.3082 84.8965 68.4388Z" fill="#FF9933"/>
<path fill-rule="evenodd" clip-rule="evenodd" d="M29.6813 65.8811C28.8174 64.3751 26.8935 63.8535 25.3989 64.7229L19.0256 68.4384C17.531 69.3078 17.0143 71.2525 17.8755 72.7612L17.9524 72.8923C18.8136 74.3983 20.7402 74.9173 22.2321 74.0479L28.608 70.335C30.1 69.463 30.6194 67.5182 29.7555 66.0095L29.6813 65.8811Z" fill="#FF9933"/>
<path fill-rule="evenodd" clip-rule="evenodd" d="M74.2395 40.086C75.1008 41.592 77.03 42.1137 78.5219 41.2443L84.8952 37.5287C86.3898 36.6593 86.9065 34.7146 86.0453 33.2059L85.9684 33.0775C85.1072 31.5688 83.1806 31.0499 81.6887 31.9192L75.3128 35.6321C73.8182 36.5042 73.3014 38.4489 74.1653 39.9576L74.2395 40.086Z" fill="#FF9933"/>
<path fill-rule="evenodd" clip-rule="evenodd" d="M51.8864 27.0585H52.0348C53.76 27.0585 55.1698 25.6354 55.1698 23.894V16.4655C55.1698 14.7241 53.76 13.2983 52.0348 13.2983H51.8864C50.1613 13.2983 48.7515 14.7241 48.7515 16.4655V23.894C48.7515 25.6354 50.1613 27.0585 51.8864 27.0585Z" fill="#FF9933"/>
<path fill-rule="evenodd" clip-rule="evenodd" d="M52.0341 78.9089H51.8857C50.1605 78.9089 48.7507 80.332 48.7507 82.0735V89.5046C48.7507 91.2434 50.1605 92.6691 51.8857 92.6691H52.0341C53.7592 92.6691 55.169 91.2434 55.169 89.5046V82.0735C55.169 80.332 53.7592 78.9089 52.0341 78.9089Z" fill="#FF9933"/>
</svg>
